# xmcd
#
# Track frame offsets:
#	150
#	15959
#	35982
#	53689
#	71846
#	91171
#	109688
#	125876
#	142932
#	159356
#	178371
#	194430
#	214295
#	230975
#	250208
#	265751
#	282894
#	297080
#	312999
#	330138
#
# Disc length: 4569 seconds
#
# Revision: 1
# Processed by: cddbd v1.5.2PL0 Copyright (c) Steve Scherf et al.
# Submitted via: dBpowerAMP V4.0
#
DISCID=2c11d714
DTITLE=Various Artist - Hott Urban Volume 39 Canada
DYEAR=2018
DGENRE=Urban
TTITLE0=Drake - In My Feelings
TTITLE1=Carters, The - Apesh-T
TTITLE2=Meek Mill ft. Jeremih and PNB Rock - Dangerous
TTITLE3=Juice Wrld - Lucid Dreams
TTITLE4=Migos - Narcos
TTITLE5=Drake ft. Michael Jackson - Don't Matter To Me
TTITLE6=Childish Gambino - Summertime Magic
TTITLE7=2 Chainz ft. Drake and Quavo - Bigger Than You
TTITLE8=J. Cole - ATM
TTITLE9=Brockhampton - 1999 Wildfire
TTITLE10=Poo Bear ft. Lazr - Vegas
TTITLE11=Khalid ft. Ty Dolla $ign and 6lack - OTW
TTITLE12=Yella Beezy - That's On Me
TTITLE13=Casanova ft. G-Eazy and Rich The Kid - Go Bestfriend
TTITLE14=A$ap Rocky ft. Skepta - Praise The Lord (Da Shine)
TTITLE15=Valee ft. Jeremih - Womp Womp
TTITLE16=Nicki Minaj ft. Ariana Grande - Bed
TTITLE17=Tee Grizzley ft. Lil Yachty - 2 Vaults
TTITLE18=Goldlink ft. Miguel - Got Friends
TTITLE19=Teyana Taylor - Gonna Love Me
EXTD=
EXTT0=
EXTT1=
EXTT2=
EXTT3=
EXTT4=
EXTT5=
EXTT6=
EXTT7=
EXTT8=
EXTT9=
EXTT10=
EXTT11=
EXTT12=
EXTT13=
EXTT14=
EXTT15=
EXTT16=
EXTT17=
EXTT18=
EXTT19=
PLAYORDER=
